<?xml version="1.0" encoding="UTF-8"?><svg id="Ebene_2" xmlns="http://www.w3.org/2000/svg" viewBox="0 0 29.05 18.21"><defs><style>.cls-1{fill:#e0b424;}</style></defs><g id="Ebene_1-2"><g><circle class="cls-1" cx="14.52" cy="1.43" r="1.43"/><path class="cls-1" d="M7.49,17.23c.2,.54,.84,.98,1.42,.98h11.22c.58,0,1.21-.44,1.42-.98l4.26-11.36c.2-.54-.07-.81-.61-.59l-6.38,2.55c-.54,.21-1.24,0-1.56-.48l-2.17-3.25c-.32-.48-.84-.48-1.16,0l-2.17,3.25c-.32,.48-1.02,.7-1.56,.48L3.84,5.28c-.54-.21-.81,.05-.61,.59l4.26,11.36Z"/><g><circle class="cls-1" cx="1.43" cy="3.57" r="1.43"/><circle class="cls-1" cx="27.61" cy="3.57" r="1.43"/></g></g></g></svg>